<svg xmlns="http://www.w3.org/2000/svg" viewBox="0 0 154.63 36"><defs><style>.cls-1{fill:#e03d59;}.cls-2{fill:#9f76a1;}.cls-3{fill:#eb6162;}.cls-4{fill:#2c252d;}</style></defs><g id="Layer_1" data-name="Layer 1"><path class="cls-1" d="M21.49,1.58h.15c.57.08.79,0,1.72,1.33s4,7.68,4.57,8.79,4,8.84,4.47,10.59c.4,1.6,1.27,3.2-1.08,4.63a39.73,39.73,0,0,1-7.08,3.14C23,30.49,21,31.29,19.8,31.56a6.18,6.18,0,0,1-1.59.3,8.37,8.37,0,0,1-2.31-.44c-2.43-.71-4.87-1.48-6.3-2a26.22,26.22,0,0,1-5.15-2.36c-1.14-.85-1.88-.89-1.66-3.75a26.63,26.63,0,0,1,1.45-6.72A50.66,50.66,0,0,1,6.79,9.65a7.86,7.86,0,0,1,3.63-3.6c2.38-1.37,4-2.15,5.39-2.79a22.66,22.66,0,0,1,5.68-1.68m0-1.58h0a23.5,23.5,0,0,0-6.34,1.82C13.69,2.5,12,3.31,9.63,4.67A9.41,9.41,0,0,0,5.44,8.8l0,.06A46.24,46.24,0,0,0,2.72,16.1l-.08.27a27,27,0,0,0-1.43,6.81c-.22,2.89.45,3.88,1.92,4.88l.38.26A25.56,25.56,0,0,0,9,30.89c1.82.68,4.8,1.57,6.41,2a10.19,10.19,0,0,0,2.76.51,5.61,5.61,0,0,0,1.57-.25l.39-.1A33.36,33.36,0,0,0,23.54,32l1.21-.43a40.42,40.42,0,0,0,7.4-3.29c3.08-1.87,2.34-4.42,2-5.8-.06-.2-.12-.38-.16-.56A117.3,117.3,0,0,0,29.34,11l-.65-1.32a86.62,86.62,0,0,0-4-7.68c-1-1.4-1.6-1.82-2.73-2h-.08Z"/><path class="cls-2" d="M12.46,3.47a28.41,28.41,0,0,1,5,.52,49.3,49.3,0,0,1,7.08,1.52,7.74,7.74,0,0,1,4,3.1c1.67,2.18,2.67,3.69,3.49,5s2.47,4.64,2.46,5.56c0,.58.08.8-1,1.92s-6.85,5.12-7.85,5.86-8,5.32-9.6,6a6.71,6.71,0,0,1-2.5.86,2.71,2.71,0,0,1-2.13-1.25,39.65,39.65,0,0,1-4.08-6.62c-.58-1.15-1.65-3.08-2.09-4.2s-.76-1.4-.43-3.92.72-5.08,1-6.59A27,27,0,0,1,7.32,5.73c.65-1.26.59-2,3.39-2.2.63,0,1.21-.06,1.75-.06m0-1.53h0c-.61,0-1.21,0-1.86.07-2.83.2-3.69,1-4.44,2.61C6.1,4.76,6,4.9,6,5a27.05,27.05,0,0,0-1.68,5.89c-.39,1.9-.82,5-1,6.68a6.88,6.88,0,0,0,.36,4.31c0,.11.1.24.15.37.35.88,1,2.11,1.56,3.2.22.42.43.82.59,1.14a41.83,41.83,0,0,0,4.25,6.89,4.27,4.27,0,0,0,3.33,1.82,6,6,0,0,0,2.58-.74l.52-.24a114,114,0,0,0,9.91-6.19l1.18-.85a83.57,83.57,0,0,0,6.85-5.16C35.68,21,36,20.37,36,19.28v-.11c0-1.57-2.15-5.54-2.7-6.41-.87-1.36-1.9-2.91-3.56-5.08a9.14,9.14,0,0,0-4.6-3.56l-.06,0a43.88,43.88,0,0,0-7.4-1.61l-.28,0A28.46,28.46,0,0,0,12.46,1.94Z"/><path class="cls-3" d="M22.45,4.1a19.26,19.26,0,0,1,4.35.35c1.34.37,2,.15,2.87,2.89a27,27,0,0,1,1.13,6.79A51.15,51.15,0,0,1,31,21.5a7.9,7.9,0,0,1-2,4.67c-1.68,2.13-2.88,3.45-3.91,4.54a26,26,0,0,1-4.71,3.66,2.15,2.15,0,0,1-.52.1c-.31,0-.69-.16-1.54-.72C17,32.87,11.85,28,10.93,27.21S4,20.43,3,19s-2.33-2.52-.7-4.7A38.74,38.74,0,0,1,7.62,8.77c1-.82,2.54-2.31,3.5-3s1.15-1.07,3.63-1.28,5-.38,6.48-.4h1.22m0-1.53H21.21c-1.9,0-4.95.26-6.6.4-2.32.21-3,.58-4,1.32l-.32.23C9.49,5.07,8.46,6,7.56,6.78l-.94.83a40.62,40.62,0,0,0-5.56,5.74c-2.1,2.81-.58,4.82.33,6l.35.47a116,116,0,0,0,8.17,8.51l1.07,1A83.24,83.24,0,0,0,17.47,35a4.36,4.36,0,0,0,2.38,1,3.17,3.17,0,0,0,.88-.14l.05,0c1.1-.31,4.52-3.13,5.41-4.08,1.09-1.16,2.33-2.52,4-4.65a9.15,9.15,0,0,0,2.31-5.34v-.06a46.45,46.45,0,0,0-.18-7.7l0-.28a27.59,27.59,0,0,0-1.18-6.84c-.84-2.74-1.79-3.41-3.49-3.81L27.2,3A19.64,19.64,0,0,0,22.45,2.57Z"/><path class="cls-4" d="M50.83,22.53H45.24a.12.12,0,0,1-.13-.12v-12a.45.45,0,0,0-.5-.44H43.48a.45.45,0,0,0-.49.44V24.12a.45.45,0,0,0,.49.44h7.35a.45.45,0,0,0,.5-.44V23A.46.46,0,0,0,50.83,22.53Z"/><path class="cls-4" d="M58.26,9.94H57.12a.45.45,0,0,0-.49.44V24.12a.45.45,0,0,0,.49.44h1.14a.45.45,0,0,0,.49-.44V10.38A.45.45,0,0,0,58.26,9.94Z"/><path class="cls-4" d="M76.11,9.94H74.73a.65.65,0,0,0-.61.44l-3.81,11a.13.13,0,0,1-.24,0l-3.83-11a.66.66,0,0,0-.61-.44H64.27a.33.33,0,0,0-.31.44l4.91,13.74c.09.26.22.44.5.44H71c.28,0,.41-.18.5-.44l4.93-13.74A.33.33,0,0,0,76.11,9.94Z"/><path class="cls-4" d="M101.91,9.94H97.07a.45.45,0,0,0-.49.44V24.12a.46.46,0,0,0,.5.44h1.13a.46.46,0,0,0,.5-.44V19.54a.12.12,0,0,1,.12-.13h3.08a4.65,4.65,0,0,0,4.76-4.73,4.65,4.65,0,0,0-4.76-4.74Zm1.9,6.69a2.53,2.53,0,0,1-1.9.78H98.83a.12.12,0,0,1-.12-.12V12.07a.12.12,0,0,1,.12-.12h3.08a2.56,2.56,0,0,1,1.9.77,2.69,2.69,0,0,1,.75,2A2.7,2.7,0,0,1,103.81,16.63Z"/><path class="cls-4" d="M117.35,10.38c-.09-.27-.22-.44-.49-.44h-1.64c-.28,0-.4.18-.5.44L109.6,24.11a.33.33,0,0,0,.31.45h1.3a.68.68,0,0,0,.65-.46l1-2.64a.19.19,0,0,1,.18-.13h6a.21.21,0,0,1,.19.13l1,2.64a.69.69,0,0,0,.65.46h1.3a.33.33,0,0,0,.31-.45Zm.94,8.94h-4.51a.12.12,0,0,1-.12-.16L115.92,13a.13.13,0,0,1,.23,0l2.26,6.21A.12.12,0,0,1,118.29,19.32Z"/><path class="cls-4" d="M154.13,22.53h-6a.12.12,0,0,1-.13-.12V18.3a.13.13,0,0,1,.13-.12h5.46a.45.45,0,0,0,.5-.44V16.62a.45.45,0,0,0-.5-.44h-5.46a.13.13,0,0,1-.13-.13v-4a.12.12,0,0,1,.13-.12h6a.45.45,0,0,0,.5-.44V10.36c0-.27-.22-.42-.5-.42h-7.72a.45.45,0,0,0-.49.44V24.12a.45.45,0,0,0,.49.44h7.72a.45.45,0,0,0,.5-.44V23A.46.46,0,0,0,154.13,22.53Z"/><path class="cls-4" d="M140.13,20.8l-.79-.46c-.26-.14-.37-.14-.57.12A5.93,5.93,0,0,1,137.14,22a5.24,5.24,0,0,1-2.63.69A5.28,5.28,0,0,1,129,17.23a5.29,5.29,0,0,1,5.47-5.45,5.14,5.14,0,0,1,2.63.69,8,8,0,0,1,1.58,1.44c.26.29.38.29.65.17l.81-.46c.25-.17.28-.29.28-.44a.64.64,0,0,0-.13-.32,6.75,6.75,0,0,0-2.24-2,7.31,7.31,0,0,0-11,6.41,7.21,7.21,0,0,0,7.41,7.35,7.08,7.08,0,0,0,3.59-.94,6.72,6.72,0,0,0,2.13-1.9.9.9,0,0,0,.23-.55C140.44,21,140.4,21,140.13,20.8Z"/><path class="cls-4" d="M88.47,17a17.88,17.88,0,0,0-2.32-.85c-1.06-.34-2.73-.77-2.85-2.29A1.59,1.59,0,0,1,84,12.47a2.7,2.7,0,0,1,1.76-.54,3.63,3.63,0,0,1,2.79,1.62c.2.22.32.35.48.37a.36.36,0,0,0,.27-.06l1-.59a.31.31,0,0,0,.13-.4,5.38,5.38,0,0,0-1.79-2.08,5.15,5.15,0,0,0-2.93-.85A4.78,4.78,0,0,0,82.56,11a3.64,3.64,0,0,0-1.31,3,3.14,3.14,0,0,0,.28,1.39,3.79,3.79,0,0,0,1.67,1.72,19,19,0,0,0,2.49,1,11.13,11.13,0,0,1,2.49,1,1.55,1.55,0,0,1,.71,1.4A1.75,1.75,0,0,1,88.18,22a3.39,3.39,0,0,1-2.12.57,3.44,3.44,0,0,1-3.4-1.91c-.09-.16-.18-.39-.36-.45s-.17,0-.4.07l-.93.56c-.29.17-.36.31-.19.68a5.21,5.21,0,0,0,1.86,2.13,6.06,6.06,0,0,0,3.38.93,5.45,5.45,0,0,0,3.54-1.11,3.68,3.68,0,0,0,1.36-3A3.78,3.78,0,0,0,88.47,17Z"/></g></svg>